<?xml version="1.0" standalone="no"?>
<!DOCTYPE svg PUBLIC "-//W3C//DTD SVG 20010904//EN"
 "http://www.w3.org/TR/2001/REC-SVG-20010904/DTD/svg10.dtd">
<svg version="1.0" xmlns="http://www.w3.org/2000/svg"
 width="48.000000pt" height="48.000000pt" viewBox="0 0 48.000000 48.000000"
 preserveAspectRatio="xMidYMid meet">
<metadata>
Created by potrace 1.10, written by Peter Selinger 2001-2011
</metadata>
<g transform="translate(0.000000,48.000000) scale(0.100000,-0.100000)"
fill="#000000" stroke="none">
<path d="M93 420 c-28 -17 -33 -25 -33 -59 0 -27 6 -43 16 -49 14 -8 12 -12
-15 -28 -30 -18 -31 -21 -31 -84 l0 -66 78 -44 c42 -24 91 -51 107 -61 l30
-17 107 62 107 61 1 66 c0 65 -1 67 -30 79 -21 9 -30 19 -30 36 0 17 -6 24
-20 24 -11 0 -20 -5 -20 -11 0 -6 -14 3 -31 20 -36 36 -69 47 -98 31 -18 -9
-21 -8 -21 7 0 19 -47 53 -72 53 -7 0 -28 -9 -45 -20z m208 -59 l23 -18 -35
-18 c-18 -10 -36 -19 -38 -21 -3 -3 11 -17 29 -33 l34 -28 -24 -12 c-24 -12
-24 -12 -5 5 26 21 13 16 -52 -20 -29 -16 -50 -32 -48 -37 3 -4 -1 -9 -7 -11
-21 -7 3 -57 37 -78 l30 -19 55 34 c65 41 72 42 68 13 -2 -15 -23 -34 -61 -57
-58 -34 -59 -34 -93 -18 -19 9 -34 23 -34 32 0 8 -4 15 -10 15 -5 0 -10 7 -10
15 0 8 -4 15 -10 15 -5 0 -10 10 -10 23 0 15 -11 29 -30 40 -18 11 -30 14 -30
7 0 -6 -4 -8 -10 -5 -6 4 -10 -7 -10 -25 0 -18 -4 -29 -10 -25 -5 3 -10 30
-10 60 0 43 5 58 22 75 28 25 52 22 56 -8 5 -33 42 -30 42 3 0 17 8 29 25 37
16 7 25 19 25 34 0 42 52 57 91 25z m79 -173 c0 -4 -4 -8 -10 -8 -5 0 -10 -6
-10 -13 0 -7 -26 -28 -57 -46 -47 -27 -61 -31 -80 -22 -13 6 -23 17 -23 26 0
8 -4 15 -10 15 -22 0 -8 17 26 34 20 9 34 19 31 22 -3 3 -15 1 -26 -6 -12 -6
-21 -8 -21 -6 0 3 14 13 31 22 17 8 28 11 25 5 -9 -15 4 -13 33 3 21 12 30 12
58 -2 18 -9 33 -19 33 -24z"/>
</g>
</svg>
